<svg width="85" height="86" viewBox="0 0 85 86" fill="none" xmlns="http://www.w3.org/2000/svg">
<mask id="path-1-outside-1_737_4" maskUnits="userSpaceOnUse" x="0" y="0.5" width="85" height="85" fill="black">
<rect fill="white" y="0.5" width="85" height="85"/>
<path fill-rule="evenodd" clip-rule="evenodd" d="M42.5 84.5C65.4198 84.5 84 65.9198 84 43C84 20.0802 65.4198 1.5 42.5 1.5C19.5802 1.5 1 20.0802 1 43C1 65.9198 19.5802 84.5 42.5 84.5ZM42.5 76.4128C60.9534 76.4128 75.9128 61.4534 75.9128 43C75.9128 24.5466 60.9534 9.58717 42.5 9.58717C24.0466 9.58717 9.08718 24.5466 9.08718 43C9.08718 61.4534 24.0466 76.4128 42.5 76.4128Z"/>
</mask>
<path fill-rule="evenodd" clip-rule="evenodd" d="M42.5 84.5C65.4198 84.5 84 65.9198 84 43C84 20.0802 65.4198 1.5 42.5 1.5C19.5802 1.5 1 20.0802 1 43C1 65.9198 19.5802 84.5 42.5 84.5ZM42.5 76.4128C60.9534 76.4128 75.9128 61.4534 75.9128 43C75.9128 24.5466 60.9534 9.58717 42.5 9.58717C24.0466 9.58717 9.08718 24.5466 9.08718 43C9.08718 61.4534 24.0466 76.4128 42.5 76.4128Z" fill="#FF6B00"/>
<path d="M83 43C83 65.3675 64.8675 83.5 42.5 83.5V85.5C65.9721 85.5 85 66.4721 85 43H83ZM42.5 2.5C64.8675 2.5 83 20.6325 83 43H85C85 19.5279 65.9721 0.5 42.5 0.5V2.5ZM2 43C2 20.6325 20.1325 2.5 42.5 2.5V0.5C19.0279 0.5 0 19.5279 0 43H2ZM42.5 83.5C20.1325 83.5 2 65.3675 2 43H0C0 66.4721 19.0279 85.5 42.5 85.5V83.5ZM74.9128 43C74.9128 60.9011 60.4011 75.4128 42.5 75.4128V77.4128C61.5057 77.4128 76.9128 62.0057 76.9128 43H74.9128ZM42.5 10.5872C60.4011 10.5872 74.9128 25.0989 74.9128 43H76.9128C76.9128 23.9943 61.5057 8.58717 42.5 8.58717V10.5872ZM10.0872 43C10.0872 25.0989 24.5989 10.5872 42.5 10.5872V8.58717C23.4943 8.58717 8.08718 23.9943 8.08718 43H10.0872ZM42.5 75.4128C24.5989 75.4128 10.0872 60.9011 10.0872 43H8.08718C8.08718 62.0057 23.4943 77.4128 42.5 77.4128V75.4128Z" fill="#FF6B00" mask="url(#path-1-outside-1_737_4)"/>
<circle cx="40.3077" cy="49.8077" r="4.30769" fill="#22407A" stroke="#22407A"/>
<path d="M47.2966 38.5658L51.5306 39.7109L52.5566 43.847L49.3485 46.8381L45.1146 45.693L44.0886 41.5568L47.2966 38.5658Z" fill="#22407A" stroke="#22407A"/>
<path fill-rule="evenodd" clip-rule="evenodd" d="M71.3345 43.1673L48.6672 20.5L26 43.1673L30.1213 47.2886L48.6672 28.7426L63.0919 43.1673L44.5459 61.7132L48.6672 65.8345L71.3345 43.1673Z" fill="#22407A"/>
<path d="M48.6672 20.5L49.0208 20.1464L48.6672 19.7929L48.3137 20.1464L48.6672 20.5ZM71.3345 43.1673L71.6881 43.5208L72.0416 43.1673L71.6881 42.8137L71.3345 43.1673ZM26 43.1673L25.6464 42.8137L25.2929 43.1673L25.6464 43.5208L26 43.1673ZM30.1213 47.2886L29.7677 47.6421L30.1213 47.9957L30.4748 47.6421L30.1213 47.2886ZM48.6672 28.7426L49.0208 28.3891L48.6672 28.0355L48.3137 28.3891L48.6672 28.7426ZM63.0919 43.1673L63.4454 43.5208L63.799 43.1673L63.4454 42.8137L63.0919 43.1673ZM44.5459 61.7132L44.1924 61.3597L43.8388 61.7132L44.1924 62.0668L44.5459 61.7132ZM48.6672 65.8345L48.3137 66.1881L48.6672 66.5416L49.0208 66.1881L48.6672 65.8345ZM48.3137 20.8536L70.9809 43.5208L71.6881 42.8137L49.0208 20.1464L48.3137 20.8536ZM26.3535 43.5208L49.0208 20.8536L48.3137 20.1464L25.6464 42.8137L26.3535 43.5208ZM30.4748 46.935L26.3535 42.8137L25.6464 43.5208L29.7677 47.6421L30.4748 46.935ZM30.4748 47.6421L49.0208 29.0962L48.3137 28.3891L29.7677 46.935L30.4748 47.6421ZM48.3137 29.0962L62.7383 43.5208L63.4454 42.8137L49.0208 28.3891L48.3137 29.0962ZM62.7383 42.8137L44.1924 61.3597L44.8995 62.0668L63.4454 43.5208L62.7383 42.8137ZM49.0208 65.481L44.8995 61.3597L44.1924 62.0668L48.3137 66.1881L49.0208 65.481ZM70.9809 42.8137L48.3137 65.481L49.0208 66.1881L71.6881 43.5208L70.9809 42.8137Z" fill="#22407A"/>
<path fill-rule="evenodd" clip-rule="evenodd" d="M35.3345 19.5L12 42.8345L35.3345 66.1691L39.5772 61.9264L20.4853 42.8345L39.5772 23.7427L35.3345 19.5Z" fill="#22407A"/>
<path d="M12 42.8345L11.6464 42.481L11.2929 42.8345L11.6464 43.1881L12 42.8345ZM35.3345 19.5L35.6881 19.1465L35.3345 18.7929L34.981 19.1465L35.3345 19.5ZM35.3345 66.1691L34.981 66.5226L35.3345 66.8762L35.6881 66.5226L35.3345 66.1691ZM39.5772 61.9264L39.9307 62.28L40.2843 61.9264L39.9307 61.5729L39.5772 61.9264ZM20.4853 42.8345L20.1317 42.481L19.7782 42.8345L20.1317 43.1881L20.4853 42.8345ZM39.5772 23.7427L39.9307 24.0962L40.2843 23.7427L39.9307 23.3891L39.5772 23.7427ZM12.3536 43.1881L35.6881 19.8536L34.981 19.1465L11.6464 42.481L12.3536 43.1881ZM35.6881 65.8155L12.3536 42.481L11.6464 43.1881L34.981 66.5226L35.6881 65.8155ZM39.2236 61.5729L34.981 65.8155L35.6881 66.5226L39.9307 62.28L39.2236 61.5729ZM39.9307 61.5729L20.8388 42.481L20.1317 43.1881L39.2236 62.28L39.9307 61.5729ZM20.8388 43.1881L39.9307 24.0962L39.2236 23.3891L20.1317 42.481L20.8388 43.1881ZM34.981 19.8536L39.2236 24.0962L39.9307 23.3891L35.6881 19.1465L34.981 19.8536Z" fill="#22407A"/>
</svg>
