<svg width="87" height="9" viewBox="0 0 87 9" fill="none" xmlns="http://www.w3.org/2000/svg">
<path d="M1.51367 0.817383H2.85156L4.51172 5.82715L6.19629 0.817383H7.51465L8.72559 8H7.40723L6.63574 3.46387L5.10742 8H3.90137L2.39258 3.46387L1.60645 8H0.273438L1.51367 0.817383ZM9.8291 0.817383H13.75V2.15527H11.1865V3.4541H13.75V4.76758H11.1865V6.65723H13.75V8H9.8291V0.817383ZM14.3213 0.817383H18.291V2.16504H16.9824V8H15.5957V2.16504H14.3213V0.817383ZM21.416 0.817383H22.8027L25.5664 8H24.1455L23.584 6.52051H20.6543L20.0684 8H18.6475L21.416 0.817383ZM22.1191 2.72168L21.1621 5.1875H23.0713L22.1191 2.72168ZM31.2793 8L29.292 2.72168L27.2705 8H25.8203L28.5889 0.817383H29.9756L32.7393 8H31.2793ZM38.2227 8L36.2354 2.72168L34.2139 8H32.7637L35.5322 0.817383H36.9189L39.6826 8H38.2227ZM43.9111 0.636719C44.9268 0.636719 45.7992 1.00456 46.5283 1.74023C47.2607 2.47591 47.627 3.37272 47.627 4.43066C47.627 5.47884 47.2656 6.36589 46.543 7.0918C45.8236 7.81771 44.9495 8.18066 43.9209 8.18066C42.8434 8.18066 41.9482 7.80794 41.2354 7.0625C40.5225 6.31706 40.166 5.43164 40.166 4.40625C40.166 3.7194 40.332 3.08789 40.6641 2.51172C40.9961 1.93555 41.4518 1.47982 42.0312 1.14453C42.6139 0.80599 43.2406 0.636719 43.9111 0.636719ZM43.8965 1.97461C43.2324 1.97461 42.6742 2.20573 42.2217 2.66797C41.7692 3.13021 41.543 3.71777 41.543 4.43066C41.543 5.22493 41.8278 5.85319 42.3975 6.31543C42.8402 6.67676 43.348 6.85742 43.9209 6.85742C44.5687 6.85742 45.1204 6.62305 45.5762 6.1543C46.0319 5.68555 46.2598 5.10775 46.2598 4.4209C46.2598 3.7373 46.0303 3.15951 45.5713 2.6875C45.1123 2.21224 44.554 1.97461 43.8965 1.97461ZM48.9111 0.817383H54.082V8H52.7002V2.09668H50.2979V8H48.9111V0.817383ZM55.7178 0.817383H57.168C57.9525 0.817383 58.5173 0.890625 58.8623 1.03711C59.2106 1.18034 59.484 1.41471 59.6826 1.74023C59.8844 2.0625 59.9854 2.44987 59.9854 2.90234C59.9854 3.40365 59.8535 3.82031 59.5898 4.15234C59.3294 4.48438 58.9746 4.71549 58.5254 4.8457C58.2617 4.92057 57.7816 4.95801 57.085 4.95801V8H55.7178V0.817383ZM57.085 3.625H57.5195C57.8613 3.625 58.099 3.60059 58.2324 3.55176C58.3659 3.50293 58.4701 3.42318 58.5449 3.3125C58.623 3.19857 58.6621 3.06185 58.6621 2.90234C58.6621 2.62565 58.5547 2.42383 58.3398 2.29688C58.1836 2.20247 57.8939 2.15527 57.4707 2.15527H57.085V3.625ZM64.7217 0.636719C65.7373 0.636719 66.6097 1.00456 67.3389 1.74023C68.0713 2.47591 68.4375 3.37272 68.4375 4.43066C68.4375 5.47884 68.0762 6.36589 67.3535 7.0918C66.6341 7.81771 65.7601 8.18066 64.7314 8.18066C63.654 8.18066 62.7588 7.80794 62.0459 7.0625C61.333 6.31706 60.9766 5.43164 60.9766 4.40625C60.9766 3.7194 61.1426 3.08789 61.4746 2.51172C61.8066 1.93555 62.2624 1.47982 62.8418 1.14453C63.4245 0.80599 64.0511 0.636719 64.7217 0.636719ZM64.707 1.97461C64.043 1.97461 63.4847 2.20573 63.0322 2.66797C62.5798 3.13021 62.3535 3.71777 62.3535 4.43066C62.3535 5.22493 62.6383 5.85319 63.208 6.31543C63.6507 6.67676 64.1585 6.85742 64.7314 6.85742C65.3792 6.85742 65.931 6.62305 66.3867 6.1543C66.8424 5.68555 67.0703 5.10775 67.0703 4.4209C67.0703 3.7373 66.8408 3.15951 66.3818 2.6875C65.9229 2.21224 65.3646 1.97461 64.707 1.97461ZM69.7363 0.817383H71.1182V3.28809L73.0664 0.817383H74.7119L72.2021 4.02051L74.9561 8H73.335L71.1182 4.81152V8H69.7363V0.817383ZM78.1152 0.817383H79.502L82.2656 8H80.8447L80.2832 6.52051H77.3535L76.7676 8H75.3467L78.1152 0.817383ZM78.8184 2.72168L77.8613 5.1875H79.7705L78.8184 2.72168ZM82.6221 0.817383H86.5918V2.16504H85.2832V8H83.8965V2.16504H82.6221V0.817383Z" fill="#252525"/>
</svg>
