<svg width="232" height="18" viewBox="0 0 232 18" fill="none" xmlns="http://www.w3.org/2000/svg">
<path d="M7.34766 17H4.25391V3.47656H0V1.00391H11.6016V3.47656H7.34766V17ZM24.9102 17H21.8281L20.5508 13.1914H14.3984L13.1445 17H10.6836L15.9922 1.00391H19.543L24.9102 17ZM19.7773 10.8828L17.4453 3.74609L15.1133 10.8828H19.7773ZM28.7266 17H25.8438V1.00391H32.3945C34.2617 1.00391 35.6445 1.47656 36.543 2.42188C37.4492 3.35938 37.9023 4.46875 37.9023 5.75C37.9023 7.21094 37.4141 8.39453 36.4375 9.30078C35.4609 10.207 34.2227 10.6602 32.7227 10.6602H28.7266V17ZM28.7266 8.1875H32.1367C33.0273 8.1875 33.707 7.96875 34.1758 7.53125C34.6445 7.09375 34.8789 6.51172 34.8789 5.78516C34.8789 5.12891 34.6602 4.56641 34.2227 4.09766C33.793 3.62891 33.0117 3.39453 31.8789 3.39453H28.7266V8.1875ZM51.7852 17H48.7031L47.4258 13.1914H41.2734L40.0195 17H37.5586L42.8672 1.00391H46.418L51.7852 17ZM46.6523 10.8828L44.3203 3.74609L41.9883 10.8828H46.6523ZM51.207 12.3359L53.8555 11.8906C54.2461 13.9141 55.4609 14.9258 57.5 14.9258C58.6016 14.9258 59.3984 14.6758 59.8906 14.1758C60.3906 13.668 60.6406 13.0391 60.6406 12.2891C60.6406 10.6172 59.7188 9.78125 57.875 9.78125H56.4805V7.67188H57.7461C58.5352 7.67188 59.1602 7.46484 59.6211 7.05078C60.0898 6.62891 60.3242 6.0625 60.3242 5.35156C60.3242 4.64844 60.0625 4.09375 59.5391 3.6875C59.0156 3.28125 58.332 3.07812 57.4883 3.07812C55.582 3.07812 54.4766 3.95312 54.1719 5.70312L51.6172 5.31641C52.1641 2.27734 54.1641 0.757812 57.6172 0.757812C59.3594 0.757812 60.7383 1.16406 61.7539 1.97656C62.7773 2.78125 63.2891 3.78906 63.2891 5C63.2891 6.75 62.3242 7.91797 60.3945 8.50391C62.6367 8.97266 63.7578 10.2266 63.7578 12.2656C63.7578 13.6484 63.2266 14.8242 62.1641 15.793C61.1016 16.7617 59.5742 17.2461 57.582 17.2461C55.6602 17.2461 54.1523 16.8008 53.0586 15.9102C51.9727 15.0117 51.3555 13.8203 51.207 12.3359ZM86.0273 17H83.0859V2.99609L78.6562 17H77.1445L72.6914 2.99609V17H70.3359V1.00391H74.8477L78.1992 11.3047L81.4922 1.00391H86.0273V17ZM98.9492 17H88.5547V1.00391H98.8438V3.38281H91.4375V7.71875H97.3906V10.0391H91.4375V14.5156H98.9492V17ZM106.035 17H102.941V3.47656H98.6875V1.00391H110.289V3.47656H106.035V17ZM123.598 17H120.516L119.238 13.1914H113.086L111.832 17H109.371L114.68 1.00391H118.23L123.598 17ZM118.465 10.8828L116.133 3.74609L113.801 10.8828H118.465ZM124.918 17H122.41L127.484 1.00391H131.141L136.191 17H133.098L129.055 3.6875H128.891L124.918 17ZM137.02 17H134.512L139.586 1.00391H143.242L148.293 17H145.199L141.156 3.6875H140.992L137.02 17ZM156.617 15.5469V17H153.734V1.00391H156.617V9.98047C156.617 10.707 156.59 11.5117 156.535 12.3945C157.051 11.3086 157.68 10.2461 158.422 9.20703L163.133 2.62109V1.00391H166.004V17H163.133V8.71484C163.133 7.27734 163.156 6.30078 163.203 5.78516C162.641 6.91016 162.008 7.96875 161.305 8.96094L156.617 15.5469ZM180.402 17H177.52V10.0508H171.414V17H168.531V1.00391H171.414V7.57812H177.52V1.00391H180.402V17ZM182.93 17V1.00391H189.164C190.219 1.00391 191.094 1.11328 191.789 1.33203C192.484 1.55078 193.086 2.00781 193.594 2.70312C194.102 3.39844 194.355 4.21484 194.355 5.15234C194.355 6.03516 194.098 6.80469 193.582 7.46094C193.066 8.10938 192.355 8.52344 191.449 8.70312C192.574 8.89844 193.426 9.35547 194.004 10.0742C194.582 10.793 194.871 11.6445 194.871 12.6289C194.871 13.8633 194.465 14.9023 193.652 15.7461C192.848 16.582 191.605 17 189.926 17H182.93ZM185.66 7.71875H189.176C189.895 7.71875 190.461 7.50391 190.875 7.07422C191.297 6.64453 191.508 6.09766 191.508 5.43359C191.508 4.69922 191.27 4.16016 190.793 3.81641C190.316 3.46484 189.758 3.28906 189.117 3.28906H185.66V7.71875ZM185.66 14.5977H189.387C190.176 14.5977 190.797 14.3906 191.25 13.9766C191.711 13.5625 191.941 13.0039 191.941 12.3008C191.941 11.6289 191.707 11.0781 191.238 10.6484C190.777 10.2188 190.164 10.0039 189.398 10.0039H185.66V14.5977ZM206.902 17H196.508V1.00391H206.797V3.38281H199.391V7.71875H205.344V10.0391H199.391V14.5156H206.902V17ZM217.34 11.4453L220.012 11.7383C219.84 13.3398 219.219 14.6602 218.148 15.6992C217.086 16.7305 215.688 17.2461 213.953 17.2461C212.492 17.2461 211.305 16.8789 210.391 16.1445C209.484 15.4102 208.785 14.4141 208.293 13.1562C207.801 11.8984 207.555 10.5117 207.555 8.99609C207.555 6.55859 208.133 4.57812 209.289 3.05469C210.445 1.52344 212.035 0.757812 214.059 0.757812C215.645 0.757812 216.965 1.24609 218.02 2.22266C219.074 3.19922 219.738 4.59766 220.012 6.41797L217.34 6.69922C216.848 4.28516 215.762 3.07812 214.082 3.07812C213.004 3.07812 212.164 3.58203 211.562 4.58984C210.969 5.58984 210.672 7.04297 210.672 8.94922C210.672 10.8867 210.992 12.3516 211.633 13.3438C212.273 14.3281 213.121 14.8203 214.176 14.8203C215.02 14.8203 215.738 14.4883 216.332 13.8242C216.926 13.1602 217.262 12.3672 217.34 11.4453ZM226.887 17H223.793V3.47656H219.539V1.00391H231.141V3.47656H226.887V17Z" fill="#252525"/>
</svg>
