<svg width="40" height="40" viewBox="0 0 40 40" fill="none" xmlns="http://www.w3.org/2000/svg">
<circle cx="20" cy="20" r="20" fill="#F4F0F8"/>
<path d="M27.8686 10H12.9647C11.282 10 10 11.3333 10 13.0833V28.5833C10 30.3333 11.282 31.6667 12.9647 31.6667H27.8686C29.5513 31.6667 30.8333 30.3333 30.8333 28.5833V13.0833C30.8333 11.3333 29.5513 10 27.8686 10ZM20.4167 27.3333C23.8622 27.3333 26.6667 24.5 26.6667 21.0833C26.6667 20.5 26.5865 19.8333 26.4263 19.3333H28.1891V28.1667C28.1891 28.5833 27.8686 29 27.3878 29H13.4455C13.0449 29 12.6442 28.6667 12.6442 28.1667V19.25H14.4872C14.3269 19.8333 14.2468 20.4167 14.2468 21C14.1667 24.5 16.9712 27.3333 20.4167 27.3333ZM20.4167 24.8333C18.1731 24.8333 16.4103 23 16.4103 20.75C16.4103 18.5 18.1731 16.6667 20.4167 16.6667C22.6603 16.6667 24.4231 18.5 24.4231 20.75C24.4231 23.0833 22.6603 24.8333 20.4167 24.8333ZM28.109 15.9167C28.109 16.4167 27.7083 16.8333 27.2276 16.8333H24.984C24.5032 16.8333 24.1026 16.4167 24.1026 15.9167V13.6667C24.1026 13.1667 24.5032 12.75 24.984 12.75H27.2276C27.7083 12.75 28.109 13.1667 28.109 13.6667V15.9167Z" fill="#22407A"/>
</svg>
